{"title":"Secret Worlds DVDrip 6 Parts English Klam","uid":6322113,"size":4102851733,"categoryP":"video","categoryS":"movies","magnet":"?xt=urn:btih:10009481f70f06707782a94e999148f6c66c4e76&amp;dn=Secret+Worlds+DVDrip+6+Parts+English+Klam&amp;tr=udp%3A%2F%2Ftracker.openbittorrent.com%3A80&amp;tr=udp%3A%2F%2Fopen.demonii.com%3A1337&amp;tr=udp%3A%2F%2Ftracker.coppersurfer.tk%3A6969&amp;tr=udp%3A%2F%2Fexodus.desync.com%3A6969","seeders":0,"leechers":2,"uploader":"Klambake","files":-1,"time":1302971616,"description":"1. The Mystery of the Maya\nMayans built the first Pre-Columbian civilization in the Americas; first calendar and written language; amazing monuments.\n\n2. Mystery of the Templars\nJourney of the Knights Templar and the treasure they carried across several countries and two continents to never be found again.\n\n3. The Lost City of Angkor Wat\nOne thousand year old civilization in the jungles of Cambodia; some of the most magnificent temples and structures.\n\n4. Mystery of the Copper Scroll\nA 2000 year old scroll made of copper revealing the treasures scattered throughout the Israeli landscape.\n\n5. Mystery of the Anasazi,\nThe most ancient tribe, the Anasazi's of the Southwest; cliff houses and a 600 room structure called 'Pueblo Bonito'.\n\n6. Easter Island: Mystery of the Rapa Nui\nStone aged technology was used by the Rapa Nui; amazing stone monuments ever known.\n\nGeneral:\n\nComplete name                    : Secret Worlds\\Mystery of the Anasazi.avi\nFormat                           : AVI\nFormat/Info                      : Audio Video Interleave\nFile size                        : 652 MiB\nDuration                         : 48mn 8s\nOverall bit rate                 : 1 894 Kbps\n\nVideo:\n\nFormat                           : MPEG-4 Visual\nFormat profile                   : Simple@L3\nFormat settings, BVOP            : No\nFormat settings, QPel            : No\nFormat settings, GMC             : No warppoints\nFormat settings, Matrix          : Default (H.263)\nCodec ID                         : XVID\nCodec ID/Hint                    : XviD\nDuration                         : 48mn 8s\nBit rate                         : 1 435 Kbps\nWidth                            : 704 pixels\nHeight                           : 396 pixels\nDisplay aspect ratio             : 16:9\nFrame rate                       : 25.000 fps\nColor space                      : YUV\nChroma subsampling               : 4:2:0\nBit depth                        : 8 bits\nScan type                        : Progressive\nBits/(Pixel*Frame)               : 0.206\nStream size                      : 494 MiB (76%)\nWriting library                  : XviD 1.1.2 (UTC 2006-11-01)\n\nAudio:\n\nFormat                           : AC-3\nFormat/Info                      : Audio Coding 3\nMode extension                   : CM (complete main)\nCodec ID                         : 2000\nDuration                         : 48mn 8s\nBit rate mode                    : Constant\nBit rate                         : 448 Kbps\nChannel(s)                       : 6 channels\nChannel positions                : Front: L C R, Side: L R, LFE\nSampling rate                    : 48.0 KHz\nBit depth                        : 16 bits\nStream size                      : 154 MiB (24%)\nAlignment                        : Aligned on interleaves\nInterleave, duration             : 32 ms (0.80 video frame)\nInterleave, preload duration     : 256 ms","torrent":{"xt":"urn:btih:10009481f70f06707782a94e999148f6c66c4e76","amp;dn":"Secret+Worlds+DVDrip+6+Parts+English+Klam","amp;tr":["udp%3A%2F%2Ftracker.openbittorrent.com%3A80","udp%3A%2F%2Fopen.demonii.com%3A1337","udp%3A%2F%2Ftracker.coppersurfer.tk%3A6969","udp%3A%2F%2Fexodus.desync.com%3A6969"],"infoHash":"10009481f70f06707782a94e999148f6c66c4e76","infoHashBuffer":{"type":"Buffer","data":[16,0,148,129,247,15,6,112,119,130,169,78,153,145,72,246,198,108,78,118]},"announce":[],"urlList":[]}}